<mxfile host="app.diagrams.net" modified="2021-03-30T20:47:24.405Z" agent="5.0 (Windows NT 10.0; Win64; x64) AppleWebKit/537.36 (KHTML, like Gecko) Chrome/89.0.4389.105 Safari/537.36" etag="ylK6SuLet2P6kjgGPJfx" version="14.5.3" type="github">
  <diagram id="TpDNIWJ-9nRi3gumz-aJ" name="Page-1">
    <mxGraphModel dx="2370" dy="1330" grid="1" gridSize="10" guides="1" tooltips="1" connect="1" arrows="1" fold="1" page="1" pageScale="1" pageWidth="827" pageHeight="1169" math="0" shadow="0">
      <root>
        <mxCell id="0" />
        <mxCell id="1" parent="0" />
        <mxCell id="n1vejqF0jE8eAnkQm3fS-3" style="edgeStyle=orthogonalEdgeStyle;orthogonalLoop=1;jettySize=auto;html=1;exitX=0.5;exitY=1;exitDx=0;exitDy=0;" edge="1" parent="1" source="n1vejqF0jE8eAnkQm3fS-1">
          <mxGeometry relative="1" as="geometry">
            <mxPoint x="409.8811764705883" y="392" as="targetPoint" />
          </mxGeometry>
        </mxCell>
        <mxCell id="n1vejqF0jE8eAnkQm3fS-1" value="&lt;b&gt;&lt;u&gt;DEBUT&lt;/u&gt;&lt;/b&gt;" style="whiteSpace=wrap;html=1;" vertex="1" parent="1">
          <mxGeometry x="349.94" y="272" width="120" height="60" as="geometry" />
        </mxCell>
        <mxCell id="n1vejqF0jE8eAnkQm3fS-6" value="&lt;b&gt;loop&lt;/b&gt;" style="shape=loopLimit;whiteSpace=wrap;html=1;" vertex="1" parent="1">
          <mxGeometry x="359.94" y="392" width="100" height="80" as="geometry" />
        </mxCell>
        <mxCell id="n1vejqF0jE8eAnkQm3fS-7" style="edgeStyle=orthogonalEdgeStyle;orthogonalLoop=1;jettySize=auto;html=1;exitX=0.5;exitY=1;exitDx=0;exitDy=0;" edge="1" parent="1">
          <mxGeometry relative="1" as="geometry">
            <mxPoint x="409.94" y="502" as="targetPoint" />
            <mxPoint x="409.88" y="472" as="sourcePoint" />
          </mxGeometry>
        </mxCell>
        <mxCell id="n1vejqF0jE8eAnkQm3fS-9" value="récuperation des donné du detecteur de vague" style="shape=parallelogram;perimeter=parallelogramPerimeter;whiteSpace=wrap;html=1;fixedSize=1;" vertex="1" parent="1">
          <mxGeometry x="259.94" y="502" width="300" height="60" as="geometry" />
        </mxCell>
        <mxCell id="n1vejqF0jE8eAnkQm3fS-11" value="" style="endArrow=classic;html=1;exitX=0.5;exitY=1;exitDx=0;exitDy=0;" edge="1" parent="1" source="n1vejqF0jE8eAnkQm3fS-9">
          <mxGeometry width="50" height="50" relative="1" as="geometry">
            <mxPoint x="379.94" y="662" as="sourcePoint" />
            <mxPoint x="409.94" y="592" as="targetPoint" />
          </mxGeometry>
        </mxCell>
        <mxCell id="n1vejqF0jE8eAnkQm3fS-12" value="&lt;i&gt;il y a une vague ?&lt;/i&gt;" style="rhombus;whiteSpace=wrap;html=1;" vertex="1" parent="1">
          <mxGeometry x="369.94" y="592" width="80" height="80" as="geometry" />
        </mxCell>
        <mxCell id="n1vejqF0jE8eAnkQm3fS-13" value="" style="endArrow=classic;html=1;exitX=1;exitY=0.5;exitDx=0;exitDy=0;entryX=0;entryY=0.5;entryDx=0;entryDy=0;" edge="1" parent="1" source="n1vejqF0jE8eAnkQm3fS-12" target="n1vejqF0jE8eAnkQm3fS-15">
          <mxGeometry width="50" height="50" relative="1" as="geometry">
            <mxPoint x="379.94" y="652" as="sourcePoint" />
            <mxPoint x="599.94" y="632" as="targetPoint" />
          </mxGeometry>
        </mxCell>
        <mxCell id="n1vejqF0jE8eAnkQm3fS-14" value="&lt;b&gt;oui&lt;/b&gt;" style="text;html=1;strokeColor=none;fillColor=none;align=center;verticalAlign=middle;whiteSpace=wrap;" vertex="1" parent="1">
          <mxGeometry x="449.94" y="612" width="40" height="20" as="geometry" />
        </mxCell>
        <mxCell id="n1vejqF0jE8eAnkQm3fS-15" value="alarme" style="whiteSpace=wrap;html=1;" vertex="1" parent="1">
          <mxGeometry x="609.94" y="617" width="80" height="30" as="geometry" />
        </mxCell>
        <mxCell id="n1vejqF0jE8eAnkQm3fS-16" value="" style="endArrow=classic;html=1;exitX=0.5;exitY=1;exitDx=0;exitDy=0;" edge="1" parent="1" source="n1vejqF0jE8eAnkQm3fS-12">
          <mxGeometry width="50" height="50" relative="1" as="geometry">
            <mxPoint x="379.94" y="652" as="sourcePoint" />
            <mxPoint x="409.94" y="712" as="targetPoint" />
          </mxGeometry>
        </mxCell>
        <mxCell id="n1vejqF0jE8eAnkQm3fS-17" value="&lt;b&gt;non&lt;/b&gt;" style="text;html=1;strokeColor=none;fillColor=none;align=center;verticalAlign=middle;whiteSpace=wrap;" vertex="1" parent="1">
          <mxGeometry x="409.94" y="672" width="40" height="20" as="geometry" />
        </mxCell>
        <mxCell id="n1vejqF0jE8eAnkQm3fS-20" style="edgeStyle=orthogonalEdgeStyle;orthogonalLoop=1;jettySize=auto;html=1;entryX=0;entryY=0.5;entryDx=0;entryDy=0;" edge="1" parent="1" source="n1vejqF0jE8eAnkQm3fS-18" target="n1vejqF0jE8eAnkQm3fS-24">
          <mxGeometry relative="1" as="geometry">
            <mxPoint x="529.94" y="781.9999999999998" as="targetPoint" />
            <Array as="points">
              <mxPoint x="609.94" y="837" />
            </Array>
          </mxGeometry>
        </mxCell>
        <mxCell id="n1vejqF0jE8eAnkQm3fS-26" style="edgeStyle=orthogonalEdgeStyle;orthogonalLoop=1;jettySize=auto;html=1;exitX=0.5;exitY=1;exitDx=0;exitDy=0;entryX=-0.042;entryY=0.63;entryDx=0;entryDy=0;entryPerimeter=0;" edge="1" parent="1" source="n1vejqF0jE8eAnkQm3fS-18" target="n1vejqF0jE8eAnkQm3fS-6">
          <mxGeometry relative="1" as="geometry">
            <mxPoint x="249.94" y="442" as="targetPoint" />
            <Array as="points">
              <mxPoint x="410" y="892" />
              <mxPoint x="220" y="892" />
              <mxPoint x="220" y="442" />
            </Array>
          </mxGeometry>
        </mxCell>
        <mxCell id="n1vejqF0jE8eAnkQm3fS-18" value="distance robot bodure &amp;gt; 5 cm" style="rhombus;whiteSpace=wrap;html=1;" vertex="1" parent="1">
          <mxGeometry x="359.94" y="797" width="100" height="80" as="geometry" />
        </mxCell>
        <mxCell id="n1vejqF0jE8eAnkQm3fS-21" value="&lt;b&gt;oui&lt;/b&gt;" style="text;html=1;strokeColor=none;fillColor=none;align=center;verticalAlign=middle;whiteSpace=wrap;" vertex="1" parent="1">
          <mxGeometry x="449.94" y="807" width="40" height="20" as="geometry" />
        </mxCell>
        <mxCell id="n1vejqF0jE8eAnkQm3fS-24" value="alarme" style="whiteSpace=wrap;html=1;" vertex="1" parent="1">
          <mxGeometry x="619.94" y="822" width="80" height="30" as="geometry" />
        </mxCell>
        <mxCell id="n1vejqF0jE8eAnkQm3fS-29" style="edgeStyle=orthogonalEdgeStyle;orthogonalLoop=1;jettySize=auto;html=1;exitX=0.5;exitY=1;exitDx=0;exitDy=0;" edge="1" parent="1" source="n1vejqF0jE8eAnkQm3fS-27">
          <mxGeometry relative="1" as="geometry">
            <mxPoint x="409.8811764705883" y="791.9999999999998" as="targetPoint" />
          </mxGeometry>
        </mxCell>
        <mxCell id="n1vejqF0jE8eAnkQm3fS-27" value="récuperation des donné du capteur à ultrason" style="shape=parallelogram;perimeter=parallelogramPerimeter;whiteSpace=wrap;html=1;fixedSize=1;" vertex="1" parent="1">
          <mxGeometry x="259.94" y="712" width="300" height="60" as="geometry" />
        </mxCell>
        <mxCell id="n1vejqF0jE8eAnkQm3fS-32" value="&lt;b&gt;non&lt;/b&gt;" style="text;html=1;strokeColor=none;fillColor=none;align=center;verticalAlign=middle;whiteSpace=wrap;" vertex="1" parent="1">
          <mxGeometry x="409.94" y="877" width="40" height="20" as="geometry" />
        </mxCell>
        <mxCell id="n1vejqF0jE8eAnkQm3fS-33" value="&lt;b&gt;&lt;u&gt;&lt;i&gt;&lt;font style=&quot;font-size: 34px&quot;&gt;Diagramme Alarme&lt;/font&gt;&lt;/i&gt;&lt;/u&gt;&lt;/b&gt;&amp;nbsp;" style="text;html=1;strokeColor=none;fillColor=none;align=center;verticalAlign=middle;whiteSpace=wrap;rounded=0;sketch=0;" vertex="1" parent="1">
          <mxGeometry x="264" y="80" width="300" height="150" as="geometry" />
        </mxCell>
      </root>
    </mxGraphModel>
  </diagram>
</mxfile>
